<svg width="96" height="56" viewBox="0 0 96 56" fill="none" xmlns="http://www.w3.org/2000/svg">
<rect width="96" height="56" rx="5" fill="#EFF7FF"/>
<path d="M36.2811 26.782V28.618H33.2391V31.66H31.4031V28.618H28.3611V26.782H31.4031V23.74H33.2391V26.782H36.2811ZM47.4016 29.806V31.732H45.9616V34H43.8736V31.732H37.6816V29.806L42.0196 21.4H44.2696L39.9316 29.806H43.8736V26.53H45.9616V29.806H47.4016ZM47.6274 21.4H55.6374V23.2L51.2094 34H49.0314L53.3874 23.38H47.6274V21.4ZM62.1216 26.098C61.5696 26.65 60.8736 26.926 60.0336 26.926C59.1936 26.926 58.4916 26.65 57.9276 26.098C57.3636 25.534 57.0816 24.85 57.0816 24.046C57.0816 23.242 57.3636 22.564 57.9276 22.012C58.4916 21.448 59.1936 21.166 60.0336 21.166C60.8736 21.166 61.5696 21.442 62.1216 21.994C62.6856 22.546 62.9676 23.23 62.9676 24.046C62.9676 24.85 62.6856 25.534 62.1216 26.098ZM60.0156 25.342C60.3996 25.342 60.7116 25.216 60.9516 24.964C61.1916 24.712 61.3116 24.406 61.3116 24.046C61.3116 23.674 61.1916 23.362 60.9516 23.11C60.7116 22.858 60.3996 22.732 60.0156 22.732C59.6436 22.732 59.3376 22.858 59.0976 23.11C58.8576 23.362 58.7376 23.674 58.7376 24.046C58.7376 24.406 58.8576 24.712 59.0976 24.964C59.3376 25.216 59.6436 25.342 60.0156 25.342ZM58.1436 32.146L66.4416 22.912L67.4136 23.47L59.1156 32.722L58.1436 32.146ZM65.7936 34.216C64.9536 34.216 64.2516 33.94 63.6876 33.388C63.1236 32.824 62.8416 32.14 62.8416 31.336C62.8416 30.532 63.1236 29.854 63.6876 29.302C64.2516 28.738 64.9536 28.456 65.7936 28.456C66.6216 28.456 67.3176 28.738 67.8816 29.302C68.4456 29.854 68.7276 30.532 68.7276 31.336C68.7276 32.14 68.4456 32.824 67.8816 33.388C67.3176 33.94 66.6216 34.216 65.7936 34.216ZM65.7756 32.632C66.1596 32.632 66.4716 32.506 66.7116 32.254C66.9516 32.002 67.0716 31.696 67.0716 31.336C67.0716 30.964 66.9516 30.652 66.7116 30.4C66.4716 30.148 66.1596 30.022 65.7756 30.022C65.4036 30.022 65.0976 30.148 64.8576 30.4C64.6176 30.652 64.4976 30.964 64.4976 31.336C64.4976 31.696 64.6176 32.002 64.8576 32.254C65.0976 32.506 65.4036 32.632 65.7756 32.632Z" fill="#3454F5"/>
</svg>
