<svg width="131" height="88" viewBox="0 0 131 88" fill="none" xmlns="http://www.w3.org/2000/svg">
<path d="M54.911 35.4641L75.911 14.4641" stroke="white" stroke-width="2" stroke-linecap="round" stroke-linejoin="round"/>
<path d="M64.4209 13.5801H76.7953V25.9544" stroke="white" stroke-width="2" stroke-linecap="round" stroke-linejoin="round"/>
<path d="M6.416 81.208C4.73067 81.208 3.33333 80.6533 2.224 79.544C1.11467 78.424 0.56 77.0427 0.56 75.4C0.56 73.7573 1.11467 72.3813 2.224 71.272C3.33333 70.152 4.73067 69.592 6.416 69.592C7.42933 69.592 8.36267 69.832 9.216 70.312C10.08 70.792 10.752 71.4427 11.232 72.264L9.632 73.192C9.33333 72.6373 8.896 72.2 8.32 71.88C7.75467 71.5493 7.12 71.384 6.416 71.384C5.22133 71.384 4.25067 71.7627 3.504 72.52C2.768 73.2773 2.4 74.2373 2.4 75.4C2.4 76.5627 2.768 77.5227 3.504 78.28C4.25067 79.0373 5.22133 79.416 6.416 79.416C7.12 79.416 7.76 79.256 8.336 78.936C8.912 78.6053 9.344 78.1627 9.632 77.608L11.232 78.52C10.7627 79.3413 10.096 79.9973 9.232 80.488C8.37867 80.968 7.44 81.208 6.416 81.208ZM20.8868 73V81H19.2068V75.736L16.9028 79.4H16.6948L14.4068 75.752V81H12.7268V73H14.4868L16.8068 76.696L19.1268 73H20.8868ZM26.659 81.208C25.4857 81.208 24.4883 80.8027 23.667 79.992C22.8457 79.1813 22.435 78.184 22.435 77C22.435 75.816 22.8457 74.8187 23.667 74.008C24.4883 73.1973 25.4857 72.792 26.659 72.792C27.843 72.792 28.8403 73.1973 29.651 74.008C30.4723 74.8187 30.883 75.816 30.883 77C30.883 78.184 30.4723 79.1813 29.651 79.992C28.8403 80.8027 27.843 81.208 26.659 81.208ZM24.883 78.808C25.363 79.288 25.955 79.528 26.659 79.528C27.363 79.528 27.955 79.288 28.435 78.808C28.915 78.328 29.155 77.7253 29.155 77C29.155 76.2747 28.915 75.672 28.435 75.192C27.955 74.712 27.363 74.472 26.659 74.472C25.955 74.472 25.363 74.712 24.883 75.192C24.403 75.672 24.163 76.2747 24.163 77C24.163 77.7253 24.403 78.328 24.883 78.808ZM38.245 73V74.664H35.637V81H33.909V74.664H31.285V73H38.245ZM43.9423 72.792C45.0409 72.792 45.9796 73.2027 46.7583 74.024C47.5369 74.8347 47.9263 75.8267 47.9263 77C47.9263 78.184 47.5369 79.1813 46.7583 79.992C45.9796 80.8027 45.0409 81.208 43.9423 81.208C42.7263 81.208 41.7929 80.76 41.1423 79.864V84.2H39.4143V73H41.1423V74.152C41.7929 73.2453 42.7263 72.792 43.9423 72.792ZM41.8623 78.84C42.3423 79.32 42.9449 79.56 43.6703 79.56C44.3956 79.56 44.9983 79.32 45.4783 78.84C45.9583 78.3493 46.1983 77.736 46.1983 77C46.1983 76.264 45.9583 75.656 45.4783 75.176C44.9983 74.6853 44.3956 74.44 43.6703 74.44C42.9449 74.44 42.3423 74.6853 41.8623 75.176C41.3823 75.656 41.1423 76.264 41.1423 77C41.1423 77.736 41.3823 78.3493 41.8623 78.84ZM50.8524 77.736C50.9804 78.344 51.2737 78.8133 51.7324 79.144C52.191 79.464 52.751 79.624 53.4124 79.624C54.3297 79.624 55.0177 79.2933 55.4764 78.632L56.9004 79.464C56.111 80.6267 54.943 81.208 53.3964 81.208C52.095 81.208 51.0444 80.8133 50.2444 80.024C49.4444 79.224 49.0444 78.216 49.0444 77C49.0444 75.8053 49.439 74.808 50.2284 74.008C51.0177 73.1973 52.031 72.792 53.2684 72.792C54.4417 72.792 55.4017 73.2027 56.1484 74.024C56.9057 74.8453 57.2844 75.8427 57.2844 77.016C57.2844 77.1973 57.263 77.4373 57.2204 77.736H50.8524ZM50.8364 76.328H55.5404C55.423 75.6773 55.151 75.1867 54.7244 74.856C54.3084 74.5253 53.8177 74.36 53.2524 74.36C52.6124 74.36 52.079 74.536 51.6524 74.888C51.2257 75.24 50.9537 75.72 50.8364 76.328ZM64.6044 73V74.664H61.9964V81H60.2684V74.664H57.6444V73H64.6044ZM69.2616 75.72C70.115 75.72 70.8136 75.9653 71.3576 76.456C71.9016 76.936 72.1736 77.5707 72.1736 78.36C72.1736 79.1387 71.9016 79.7733 71.3576 80.264C70.8136 80.7547 70.115 81 69.2616 81H65.7736V73H67.5016V75.72H69.2616ZM69.2776 79.448C69.619 79.448 69.9016 79.3467 70.1256 79.144C70.3603 78.9413 70.4776 78.68 70.4776 78.36C70.4776 78.0293 70.3603 77.768 70.1256 77.576C69.9016 77.3733 69.619 77.272 69.2776 77.272H67.5016V79.448H69.2776ZM84.7061 73V81H82.9781V74.632H79.3141V81H77.5861V73H84.7061ZM91.2391 72.792C92.3378 72.792 93.2765 73.2027 94.0551 74.024C94.8338 74.8347 95.2231 75.8267 95.2231 77C95.2231 78.184 94.8338 79.1813 94.0551 79.992C93.2765 80.8027 92.3378 81.208 91.2391 81.208C90.0231 81.208 89.0898 80.76 88.4391 79.864V84.2H86.7111V73H88.4391V74.152C89.0898 73.2453 90.0231 72.792 91.2391 72.792ZM89.1591 78.84C89.6391 79.32 90.2418 79.56 90.9671 79.56C91.6925 79.56 92.2951 79.32 92.7751 78.84C93.2551 78.3493 93.4951 77.736 93.4951 77C93.4951 76.264 93.2551 75.656 92.7751 75.176C92.2951 74.6853 91.6925 74.44 90.9671 74.44C90.2418 74.44 89.6391 74.6853 89.1591 75.176C88.6791 75.656 88.4391 76.264 88.4391 77C88.4391 77.736 88.6791 78.3493 89.1591 78.84ZM100.565 81.208C99.3919 81.208 98.3946 80.8027 97.5733 79.992C96.7519 79.1813 96.3413 78.184 96.3413 77C96.3413 75.816 96.7519 74.8187 97.5733 74.008C98.3946 73.1973 99.3919 72.792 100.565 72.792C101.749 72.792 102.747 73.1973 103.557 74.008C104.379 74.8187 104.789 75.816 104.789 77C104.789 78.184 104.379 79.1813 103.557 79.992C102.747 80.8027 101.749 81.208 100.565 81.208ZM98.7893 78.808C99.2693 79.288 99.8613 79.528 100.565 79.528C101.269 79.528 101.861 79.288 102.341 78.808C102.821 78.328 103.061 77.7253 103.061 77C103.061 76.2747 102.821 75.672 102.341 75.192C101.861 74.712 101.269 74.472 100.565 74.472C99.8613 74.472 99.2693 74.712 98.7893 75.192C98.3093 75.672 98.0693 76.2747 98.0693 77C98.0693 77.7253 98.3093 78.328 98.7893 78.808ZM107.712 77.736C107.84 78.344 108.133 78.8133 108.592 79.144C109.05 79.464 109.61 79.624 110.272 79.624C111.189 79.624 111.877 79.2933 112.336 78.632L113.76 79.464C112.97 80.6267 111.802 81.208 110.256 81.208C108.954 81.208 107.904 80.8133 107.104 80.024C106.304 79.224 105.904 78.216 105.904 77C105.904 75.8053 106.298 74.808 107.088 74.008C107.877 73.1973 108.89 72.792 110.128 72.792C111.301 72.792 112.261 73.2027 113.008 74.024C113.765 74.8453 114.144 75.8427 114.144 77.016C114.144 77.1973 114.122 77.4373 114.08 77.736H107.712ZM107.696 76.328H112.4C112.282 75.6773 112.01 75.1867 111.584 74.856C111.168 74.5253 110.677 74.36 110.112 74.36C109.472 74.36 108.938 74.536 108.512 74.888C108.085 75.24 107.813 75.72 107.696 76.328ZM122.736 81H120.672L117.392 77.304V81H115.664V73H117.392V76.536L120.496 73H122.608L119.088 76.92L122.736 81ZM130.011 73V74.664H127.403V81H125.675V74.664H123.051V73H130.011Z" fill="white"/>
</svg>
